<svg width="512" height="512" viewBox="0 0 512 512" fill="none" xmlns="http://www.w3.org/2000/svg">
<rect width="512" height="512" rx="15" fill="#0E0E0E"/>
<path d="M485.398 44.717C474.946 79.5664 454.506 145.298 430.197 213.73C436.499 215.615 442.267 217.332 446.951 218.767C448.993 219.389 450.872 220.455 452.453 221.889C454.033 223.324 455.277 225.09 456.095 227.061C456.913 229.033 457.284 231.161 457.181 233.293C457.079 235.425 456.507 237.508 455.504 239.392C435.599 277.478 381.045 376.975 327.208 432.449C326.308 433.434 325.407 434.701 324.507 435.601C308.218 451.894 288.88 464.818 267.596 473.637C246.312 482.456 223.499 486.997 200.46 487C177.421 487.003 154.608 482.468 133.321 473.655C112.035 464.841 92.6934 451.921 76.4004 435.633C60.1075 419.344 47.1823 400.007 38.363 378.723C29.5437 357.44 25.003 334.628 25 311.59C24.997 288.551 29.532 265.738 38.3458 244.453C47.1596 223.167 60.0798 203.826 76.3686 187.533C77.269 186.633 78.535 185.732 79.5198 184.832C134.988 130.891 234.376 76.4149 272.555 56.521C274.44 55.5188 276.522 54.9461 278.654 54.844C280.786 54.742 282.914 55.1131 284.886 55.9309C286.857 56.7486 288.623 57.9926 290.057 59.5736C291.491 61.1546 292.557 63.0334 293.178 65.0751C294.613 69.6617 296.33 75.5144 298.215 81.8174C366.555 57.5059 432.363 37.0634 467.209 26.6241C469.726 25.8626 472.403 25.7967 474.955 26.4334C477.507 27.0702 479.84 28.3859 481.705 30.2408C483.569 32.0958 484.897 34.4209 485.548 36.9696C486.198 39.5183 486.146 42.1954 485.398 44.717V44.717ZM313.07 314.128C313.067 291.336 306.305 269.058 293.64 250.109C280.975 231.16 262.976 216.392 241.918 207.673C220.86 198.953 197.689 196.673 175.336 201.122C152.982 205.57 132.45 216.547 116.334 232.664C100.219 248.781 89.245 269.314 84.7997 291.668C80.3543 314.022 82.6375 337.191 91.3603 358.248C100.083 379.304 114.854 397.3 133.805 409.962C152.756 422.624 175.036 429.382 197.828 429.382C212.964 429.383 227.951 426.402 241.934 420.61C255.917 414.818 268.622 406.328 279.323 395.625C290.025 384.923 298.513 372.217 304.303 358.233C310.094 344.25 313.073 329.263 313.07 314.128V314.128ZM197.828 285.314C197.827 291.012 196.137 296.581 192.971 301.319C189.805 306.056 185.305 309.748 180.04 311.928C174.776 314.108 168.983 314.678 163.395 313.566C157.806 312.453 152.673 309.709 148.644 305.68C144.616 301.651 141.872 296.517 140.761 290.929C139.649 285.341 140.22 279.548 142.401 274.284C144.582 269.02 148.274 264.521 153.012 261.355C157.75 258.19 163.32 256.5 169.018 256.5C172.803 256.496 176.551 257.238 180.049 258.685C183.547 260.132 186.725 262.254 189.401 264.93C192.077 267.607 194.199 270.785 195.645 274.283C197.091 277.78 197.833 281.529 197.828 285.314H197.828ZM226.639 357.348C226.638 360.197 225.793 362.982 224.21 365.351C222.627 367.719 220.377 369.565 217.745 370.655C215.112 371.745 212.216 372.03 209.422 371.474C206.628 370.918 204.061 369.546 202.047 367.531C200.032 365.517 198.661 362.95 198.105 360.156C197.549 357.361 197.835 354.465 198.925 351.833C200.015 349.201 201.862 346.952 204.231 345.369C206.599 343.786 209.384 342.941 212.233 342.941C216.05 342.954 219.708 344.476 222.407 347.175C225.105 349.874 226.627 353.531 226.639 357.348H226.639Z" fill="#FF1E44"/>
</svg>
